<svg width="24" height="23" viewBox="0 0 24 23" fill="none" xmlns="http://www.w3.org/2000/svg">
<path d="M13.4663 20.6288C17.9908 20.0629 21.4919 16.1915 21.4919 11.5C21.4919 6.41898 17.3854 2.3 12.3197 2.3C7.25406 2.3 3.14754 6.41898 3.14754 11.5C3.14754 16.1915 6.64867 20.0629 11.1732 20.6288V13.8H8.88015V11.5H11.1732V9.59767C11.1732 8.05983 11.3328 7.50216 11.6326 6.93994C11.9323 6.37772 12.3723 5.93648 12.9328 5.63581C13.3716 5.40045 13.9158 5.2584 14.867 5.19747C15.2444 5.17329 15.7331 5.20413 16.3326 5.29V7.475H15.7593C14.7076 7.475 14.2737 7.52482 14.0142 7.66398C13.8533 7.7503 13.7407 7.86322 13.6546 8.02462C13.5159 8.28481 13.4663 8.54281 13.4663 9.59767V11.5H16.3326L15.7593 13.8H13.4663V20.6288ZM12.3197 23C5.98765 23 0.854492 17.8512 0.854492 11.5C0.854492 5.14872 5.98765 0 12.3197 0C18.6518 0 23.785 5.14872 23.785 11.5C23.785 17.8512 18.6518 23 12.3197 23Z" fill="#587565"/>
</svg>
