<svg width="24" height="24" viewBox="0 0 24 24" fill="none" xmlns="http://www.w3.org/2000/svg">
<path d="M11.9649 9C10.3125 9 8.97395 10.3431 8.97395 12C8.97395 13.6573 10.313 15 11.9649 15C13.6172 15 14.9558 13.6569 14.9558 12C14.9558 10.3427 13.6168 9 11.9649 9ZM11.9649 7C14.717 7 16.9498 9.2371 16.9498 12C16.9498 14.7605 14.7194 17 11.9649 17C9.21276 17 6.98 14.7629 6.98 12C6.98 9.23953 9.21034 7 11.9649 7ZM18.4452 6.74915C18.4452 7.43926 17.8861 7.99917 17.199 7.99917C16.511 7.99917 15.9528 7.4384 15.9528 6.74915C15.9528 6.0599 16.5118 5.5 17.199 5.5C17.8852 5.49913 18.4452 6.0599 18.4452 6.74915ZM11.9649 4C9.49789 4 9.09578 4.00655 7.94835 4.0578C7.1666 4.09461 6.64257 4.20007 6.15568 4.38967C5.72299 4.55799 5.41087 4.75898 5.07831 5.09255C4.74447 5.4274 4.54445 5.73963 4.37731 6.17383C4.18785 6.66332 4.08274 7.18811 4.0467 7.97115C3.9951 9.0752 3.98907 9.46105 3.98907 12C3.98907 14.4745 3.9956 14.8778 4.04669 16.0286C4.0834 16.8124 4.18868 17.3388 4.37725 17.826C4.5455 18.2606 4.74629 18.5744 5.07725 18.9064C5.4124 19.2421 5.72462 19.4434 6.1534 19.6094C6.64622 19.8005 7.16992 19.9061 7.9482 19.9422C9.04893 19.9939 9.43361 20 11.9649 20C14.4319 20 14.834 19.9934 15.9813 19.9422C16.7611 19.9055 17.2863 19.7996 17.7733 19.6106C18.2054 19.4423 18.5192 19.2402 18.8504 18.9085C19.1856 18.5718 19.3859 18.2594 19.5516 17.8283C19.7416 17.3358 19.8471 16.8098 19.8831 16.0289C19.9346 14.9248 19.9407 14.5389 19.9407 12C19.9407 9.52552 19.9341 9.12221 19.8831 7.97137C19.8464 7.18906 19.7408 6.66149 19.5522 6.17318C19.3848 5.74038 19.1837 5.42635 18.8514 5.09255C18.517 4.75715 18.2066 4.55693 17.7734 4.38942C17.2858 4.19954 16.7618 4.09396 15.9815 4.05781C14.8809 4.00605 14.4961 4 11.9649 4ZM11.9649 2C14.6733 2 15.0115 2.01 16.0749 2.06C17.1358 2.10917 17.8595 2.2775 18.4951 2.525C19.1522 2.77917 19.7072 3.1225 20.2613 3.67833C20.8147 4.23417 21.157 4.7925 21.4113 5.45C21.6571 6.08667 21.825 6.81333 21.8748 7.8775C21.9222 8.94417 21.9347 9.28333 21.9347 12C21.9347 14.7167 21.9247 15.0558 21.8748 16.1225C21.8258 17.1867 21.6571 17.9125 21.4113 18.55C21.1578 19.2092 20.8147 19.7658 20.2613 20.3217C19.7072 20.8767 19.1497 21.22 18.4951 21.475C17.8595 21.7217 17.1358 21.89 16.0749 21.94C15.0115 21.9875 14.6733 22 11.9649 22C9.25643 22 8.91828 21.99 7.85485 21.94C6.79389 21.8908 6.07109 21.7217 5.43469 21.475C4.77834 21.2208 4.22252 20.8767 3.66837 20.3217C3.11422 19.7658 2.77276 19.2067 2.51853 18.55C2.27178 17.9125 2.10478 17.1867 2.05494 16.1225C2.00758 15.0558 1.99512 14.7167 1.99512 12C1.99512 9.28333 2.00509 8.94417 2.05494 7.8775C2.10395 6.8125 2.27178 6.0875 2.51853 5.45C2.77192 4.79167 3.11422 4.23417 3.66837 3.67833C4.22252 3.1225 4.77917 2.78 5.43469 2.525C6.07026 2.2775 6.79307 2.11 7.85485 2.06C8.91828 2.0125 9.25643 2 11.9649 2Z" fill="#587565"/>
</svg>
